<?xml version="1.0" standalone="no"?>
<!DOCTYPE svg PUBLIC "-//W3C//DTD SVG 20010904//EN"
 "http://www.w3.org/TR/2001/REC-SVG-20010904/DTD/svg10.dtd">
<svg version="1.0" xmlns="http://www.w3.org/2000/svg"
 width="700.000000pt" height="700.000000pt" viewBox="0 0 700.000000 700.000000"
 preserveAspectRatio="xMidYMid meet">
<metadata>
Created by potrace 1.14, written by Peter Selinger 2001-2017
</metadata>
<g transform="translate(0.000000,700.000000) scale(0.100000,-0.100000)"
fill="#000000" stroke="none">
<path d="M2735 6989 c-1188 -111 -2192 -900 -2574 -2024 -339 -994 -133 -2086
547 -2895 96 -115 296 -310 412 -403 779 -624 1794 -820 2748 -531 228 69 505
195 701 319 l105 66 695 -694 c613 -610 703 -697 756 -722 92 -43 141 -55 232
-55 142 0 256 50 353 157 143 157 171 371 73 568 -19 39 -180 205 -704 730
-373 374 -679 683 -679 687 0 4 38 63 84 132 280 417 447 870 502 1366 22 197
15 558 -15 750 -98 637 -389 1214 -839 1668 -473 476 -1075 775 -1743 867
-138 19 -516 27 -654 14z m615 -205 c637 -81 1201 -361 1652 -820 145 -147
223 -243 333 -409 250 -375 404 -794 456 -1245 16 -135 16 -475 0 -610 -90
-779 -483 -1465 -1107 -1935 -375 -283 -807 -462 -1294 -536 -173 -27 -548
-32 -715 -11 -531 68 -993 259 -1415 582 -113 88 -369 341 -464 460 -255 321
-450 726 -541 1125 -56 243 -80 629 -56 877 53 542 242 1019 580 1463 96 126
346 379 471 475 473 365 994 563 1590 604 99 7 392 -5 510 -20z"/>
<path d="M4382 5812 c-100 -36 -192 -113 -236 -199 -9 -18 -19 -33 -23 -33 -3
0 -197 45 -431 100 -234 56 -428 97 -432 93 -4 -4 -12 -24 -18 -43 -6 -19 -81
-250 -167 -512 l-156 -478 -77 0 c-97 0 -304 -24 -436 -50 -277 -56 -547 -157
-771 -288 l-50 -30 -43 30 c-280 193 -650 78 -772 -239 -28 -71 -37 -205 -20
-286 6 -31 25 -84 42 -117 31 -64 119 -166 160 -188 23 -13 23 -15 24 -175 0
-146 3 -171 27 -250 167 -544 768 -944 1602 -1064 148 -21 559 -24 710 -4 558
70 1028 275 1335 581 110 111 182 211 245 342 69 145 90 236 90 403 l0 141 53
39 c143 105 221 296 193 473 -57 371 -484 563 -785 352 -31 -22 -61 -40 -66
-40 -4 0 -48 23 -96 52 -286 168 -697 287 -1086 314 -54 4 -98 9 -98 12 0 2
61 191 135 418 81 245 141 414 148 414 7 -1 170 -38 362 -84 l350 -83 6 -54
c33 -289 349 -450 612 -312 81 43 138 104 181 193 29 61 31 72 31 175 0 104
-2 114 -32 176 -42 85 -118 161 -202 201 -57 28 -79 32 -161 35 -74 3 -107 -1
-148 -15z m225 -167 c134 -56 195 -211 134 -338 -46 -95 -159 -157 -259 -142
-242 36 -299 358 -83 470 55 29 152 33 208 10z m-1442 -1075 c573 -42 1059
-233 1361 -534 212 -213 305 -426 291 -671 -12 -216 -92 -386 -267 -569 -571
-598 -1814 -749 -2685 -326 -376 182 -631 451 -706 745 -40 159 -23 355 45
509 84 191 291 404 519 538 306 179 669 281 1107 311 97 7 211 6 335 -3z
m-1784 -268 c26 -11 49 -24 52 -29 3 -5 -22 -31 -55 -58 -119 -98 -244 -258
-313 -397 l-43 -88 -31 35 c-56 64 -74 112 -79 205 -3 69 0 95 17 141 37 97
116 170 224 205 56 19 169 11 228 -14z m3483 0 c64 -29 141 -104 173 -171 37
-77 39 -201 5 -275 -22 -49 -87 -136 -100 -136 -4 0 -21 30 -37 67 -51 118
-140 241 -261 361 -63 63 -114 116 -114 118 0 6 63 37 105 51 54 18 171 10
229 -15z"/>
<path d="M2225 3947 c-90 -30 -153 -83 -196 -167 -34 -64 -34 -195 -1 -261 30
-61 81 -113 145 -147 45 -23 64 -27 137 -27 73 0 92 4 135 27 111 59 169 154
169 278 0 88 -22 145 -79 208 -73 81 -212 121 -310 89z"/>
<path d="M3595 3951 c-94 -25 -191 -114 -221 -203 -22 -68 -15 -177 15 -236
29 -57 87 -113 147 -143 40 -20 64 -24 134 -24 72 0 92 4 136 27 184 97 225
331 85 491 -63 71 -202 113 -296 88z"/>
<path d="M2285 2898 c-31 -18 -44 -40 -45 -74 0 -42 27 -74 114 -132 143 -96
306 -139 561 -149 345 -13 615 56 768 197 44 40 51 52 51 84 0 43 -25 73 -69
82 -26 5 -40 -2 -90 -41 -132 -104 -269 -144 -522 -152 -256 -8 -413 16 -555
88 -31 16 -72 42 -90 57 -59 52 -87 61 -123 40z"/>
</g>
</svg>
